# xmcd
#
# Track frame offsets:
# 150
# 13062
# 26208
# 39076
# 58819
# 72577
# 81932
# 96429
# 110338
# 125154
# 137245
# 148958
# 165934
# 178492
# 191705
# 205914
# 222058
# 237858
# 254591
# 269237
# 288824
# 303250
# 316448
# 328446
#
# Disc length: 4583 seconds
#
#
# Revision: 2
# Processed by: cddbd v1.5.2PL0 Copyright (c) Steve Scherf et al.
# Submitted via: FreeRIP 2.52 
#
DISCID=8511e518
DTITLE=Chitãozinho e Xororó - 2 em 1
DYEAR=1900
DGENRE=
TTITLE0=Somos apaixonados
TTITLE1=Fio de Cabelo
TTITLE2=Ela fez minha cabeça
TTITLE3=Casa de pecados
TTITLE4=Quem é você
TTITLE5=Explosão de amor
TTITLE6=Chama de amor
TTITLE7=Debaixo do cobertor
TTITLE8=Uma noite especial
TTITLE9=Eu quero é amor
TTITLE10=Moço pobre
TTITLE11=Obras de poetas (Os passarinhos)
TTITLE12=Pago dobrado
TTITLE13=Fotografia (O seu retrato)
TTITLE14=Metade de alguém
TTITLE15=Alma Ferida
TTITLE16=Pés descalços
TTITLE17=Ela chora chora
TTITLE18=Vem provar de mim
TTITLE19=Estrada
TTITLE20=Canção de amor
TTITLE21=Gosto amargo
TTITLE22=Só trocando coração
TTITLE23=Filho de Maria
EXTD=Compilação 2003
EXTT0=
EXTT1=
EXTT2=
EXTT3=
EXTT4=
EXTT5=
EXTT6=
EXTT7=
EXTT8=
EXTT9=
EXTT10=
EXTT11=
EXTT12=
EXTT13=
EXTT14=
EXTT15=
EXTT16=
EXTT17=
EXTT18=
EXTT19=
EXTT20=
EXTT21=
EXTT22=
EXTT23=
PLAYORDER=
